PathFileType	4	(X/Y/Z)	HSS_squat2.trc
DataRate	CameraRate	NumFrames	NumMarkers	Units	OrigDataRate	OrigDataStartFrame	OrigNumFrames
120.0	120.0	4	44	mm	120.0	486	970
Frame#	Time		R.Shoulder		Offset		L.Shoulder		R.Elbow		R.Wrist.Radial		R.Wrist		R.Hand		L.Elbow		L.Wrist.Radial		L.Wrist		L.Hand		R.Hip		V.Sacral		L.PSIS		L.Hip		R.Thigh.Upper		R.Thigh.Front		R.Thigh.Rear		X.Shell.Lower.Thigh.Right		R.Knee.Lateral		R.Shank.Upper		R.Shank.Front		R.Shank.Rear		X.Shell.Lower.Shank.Right		R.Ankle.Lateral		R.Heel		R.Toe		L.Thigh.Upper		L.Thigh.Front		L.Thigh.Rear		X.Shell.Lower.Thigh.Left		L.Knee.Lateral		L.Shank.Upper		L.Shank.Front		L.Shank.Rear		X.Shell.Lower.Shank.Left		L.Ankle.Lateral		L.Heel		L.Toe		R.Troc		L.Troc		R.PSIS		L.ASIS		R.ASIS
			X1	Y1	Z1	X2	Y2	Z2	X3	Y3	Z3	X4	Y4	Z4	X5	Y5	Z5	X6	Y6	Z6	X7	Y7	Z7	X8	Y8	Z8	X9	Y9	Z9	X10	Y10	Z10	X11	Y11	Z11	X12	Y12	Z12	X13	Y13	Z13	X14	Y14	Z14	X15	Y15	Z15	X16	Y16	Z16	X17	Y17	Z17	X18	Y18	Z18	X19	Y19	Z19	X20	Y20	Z20	X21	Y21	Z21	X22	Y22	Z22	X23	Y23	Z23	X24	Y24	Z24	X25	Y25	Z25	X26	Y26	Z26	X27	Y27	Z27	X28	Y28	Z28	X29	Y29	Z29	X30	Y30	Z30	X31	Y31	Z31	X32	Y32	Z32	X33	Y33	Z33	X34	Y34	Z34	X35	Y35	Z35	X36	Y36	Z36	X37	Y37	Z37	X38	Y38	Z38	X39	Y39	Z39	X40	Y40	Z40	X41	Y41	Z41	X42	Y42	Z42	X43	Y43	Z43	X44	Y44	Z44

486	4.04167	143.74876	1184.93091	-226.70705	-145.97435	1132.33801	-96.90012	-170.74855	1194.62549	-248.31677	248.63168	997.32214	-492.30640	85.15223	1045.63416	-696.76697	140.25737	1067.98950	-729.51654	67.13941	1084.41162	-774.65704	-264.36063	1018.58588	-527.87738	-125.62404	1081.58398	-740.09479	-72.97547	1046.11206	-704.41284	-44.24375	1079.47668	-777.35675	118.58221	786.11115	-10.78685	-34.57648	827.32654	112.58112	-73.11374	833.32532	100.06893	-176.96417	785.14703	-22.23736	206.08557	624.04852	-127.24844	198.99623	631.57855	-178.90184	223.37860	585.41608	-145.20801	214.29967	590.44232	-190.47978	212.47517	469.45364	-241.37888	259.81339	342.25378	-213.64395	237.81885	291.58606	-226.01295	244.37761	319.13647	-171.82007	236.47452	273.13977	-180.41913	189.19084	70.86317	-89.95599	137.63284	34.31323	-43.77201	203.15579	33.68543	-236.43600	-240.77777	626.13007	-155.63573	-226.26646	615.45233	-210.40366	-261.40390	583.74634	-168.39815	-253.60298	586.33923	-212.67923	-238.45595	457.80408	-266.69858	-286.44263	290.47552	-192.68652	-269.86102	257.65640	-209.36810	-273.49609	265.77670	-148.82030	-276.44229	228.64731	-159.07439	-238.96480	73.92274	-106.14701	-192.30295	38.13540	-44.45116	-243.15755	32.42131	-241.86717	157.82266	739.65375	19.67292	-222.02675	735.63531	9.83753	8.87166	832.65082	104.73898	-134.95825	730.61206	-56.83469	88.42067	733.96893	-44.25257
487	4.05000	143.59390	1181.24231	-227.17230	-146.02490	1128.43933	-97.43583	-170.64262	1190.53662	-248.82475	248.40738	994.19830	-493.00708	85.26979	1042.30493	-697.87579	140.37607	1064.83984	-730.47156	67.29504	1081.12305	-775.76343	-263.88480	1015.30969	-528.70441	-125.41360	1078.36218	-740.92352	-72.90108	1042.89893	-705.04547	-44.02219	1076.25610	-778.43054	118.94926	783.20465	-10.08388	-34.54520	824.17340	113.33384	-73.00999	830.09882	100.74580	-176.83693	781.81543	-21.51244	206.13832	622.83514	-126.91937	198.86237	630.80524	-178.34276	223.41550	584.50806	-144.80405	214.23238	589.63690	-190.09758	212.58691	469.02505	-241.89104	259.97015	341.89890	-214.29257	237.94962	291.34192	-226.49379	244.48454	318.94678	-172.30486	236.59883	272.90179	-180.69026	189.27200	70.84212	-89.93969	137.70328	34.29760	-43.70061	203.14105	33.76257	-236.36313	-240.45229	624.86945	-154.92349	-226.03064	614.58624	-210.00237	-261.36682	582.54889	-168.16487	-253.39008	585.44702	-212.41318	-238.45306	457.36639	-267.30518	-286.36411	290.33997	-193.14159	-269.75354	257.38217	-209.79858	-273.37885	265.59460	-149.30994	-276.39160	228.50905	-159.49352	-238.95551	73.90823	-106.16492	-192.25925	38.12873	-44.43409	-243.20749	32.45215	-241.83405	157.82167	737.10150	20.60591	-221.87048	732.69659	10.81586	8.88559	829.47943	105.40558	-134.78723	727.52454	-55.97074	88.75195	730.75952	-43.45446
488	4.05833	143.43262	1177.27124	-227.65109	-146.02570	1124.45068	-97.94649	-170.51816	1186.52014	-249.25294	248.16066	991.01202	-493.81024	85.43057	1039.09851	-698.93689	140.51917	1061.68530	-731.49792	67.51611	1077.91663	-776.75616	-263.47299	1011.90424	-529.43378	-125.15750	1075.10681	-741.86920	-71.94465	1039.71228	-706.05701	-43.82563	1073.03186	-779.45239	119.05914	780.11725	-9.25779	-34.43393	820.99695	114.02121	-72.92043	826.79639	101.46423	-176.75279	778.56531	-21.26847	206.11761	621.55194	-126.16534	198.62349	629.86176	-177.73756	223.44023	583.40808	-144.67848	214.14618	589.04944	-189.96019	212.76083	468.57010	-242.32195	260.04401	341.64252	-214.70454	238.00517	291.05447	-227.01201	244.62775	318.67523	-172.88051	236.74310	272.63132	-181.10149	189.35185	70.78934	-89.93891	137.80122	34.29000	-43.63953	203.15636	33.79843	-236.32176	-240.12437	623.56415	-154.51660	-225.69139	613.62415	-209.47595	-261.12704	581.46002	-167.89287	-253.30836	584.63556	-211.93523	-238.33205	456.94547	-267.89151	-286.25107	290.23669	-193.51639	-269.59915	257.16562	-210.26822	-273.26178	265.47348	-149.70137	-276.33649	228.41650	-159.80708	-238.91635	73.90979	-106.17937	-192.24454	38.13209	-44.43529	-243.22108	32.47187	-241.81595	157.82553	734.55688	21.65973	-221.69290	729.86774	11.70415	8.92709	826.33612	106.15698	-134.52458	724.37659	-55.11033	88.86997	727.80365	-42.58656
489	4.06667	143.30005	1173.50818	-227.98511	-146.15485	1120.53235	-98.41709	-170.42520	1182.35339	-249.72246	247.81888	987.90698	-494.64893	85.52933	1035.75696	-699.99329	140.64142	1058.52734	-732.35748	67.54475	1074.66724	-777.91705	-262.98172	1008.57703	-530.39954	-125.02741	1071.87769	-742.84589	-72.65334	1036.27344	-707.35706	-43.71640	1069.72949	-780.59070	119.20493	776.90558	-8.53576	-34.45731	817.78925	114.64536	-72.84850	823.58551	102.14725	-176.72388	775.35077	-20.55263	206.04736	620.31555	-125.78319	198.42500	628.92780	-177.17601	223.49403	582.35284	-144.36438	214.04100	588.15503	-189.61916	213.00929	468.05231	-242.92746	260.20642	341.32425	-215.35286	238.11333	290.87042	-227.48557	244.78134	318.50153	-173.35864	236.84576	272.39142	-181.60808	189.39690	70.76127	-89.95422	137.86523	34.30003	-43.59761	203.13155	33.83798	-236.28798	-239.91347	622.16931	-153.85625	-225.47998	612.69641	-208.84256	-260.90610	580.32562	-167.72604	-253.08444	583.74976	-211.81094	-238.24551	456.38574	-268.48477	-286.15421	290.05072	-194.02174	-269.53156	256.99930	-210.60985	-273.16666	265.38840	-150.05925	-276.24683	228.31929	-160.08508	-238.89290	73.88009	-106.19459	-192.21213	38.12456	-44.44643	-243.20920	32.48646	-241.82043	157.89955	731.88818	22.49216	-221.59329	726.89111	12.46336	8.99219	823.14862	106.84952	-134.40225	721.31952	-54.28982	89.04385	724.91913	-42.27840
